<svg xmlns="http://www.w3.org/2000/svg" viewBox="0 0 48 48"><clipPath id="c"><circle cx="24" cy="24" r="24"/></clipPath><g clip-path="url(#c)"><circle cx="24" cy="24" r="24" fill="#56c7c2"/><path fill="#cc7f65" d="M24 24L24.000 0.000A24 24 0 0 1 25.507 0.047Z"/><path fill="#ce7e63" d="M24 24L25.256 0.033A24 24 0 0 1 26.758 0.159Z"/><path fill="#d07d61" d="M24 24L26.509 0.131A24 24 0 0 1 28.002 0.336Z"/><path fill="#d27b5f" d="M24 24L27.754 0.295A24 24 0 0 1 29.235 0.578Z"/><path fill="#d47a5e" d="M24 24L28.990 0.524A24 24 0 0 1 30.454 0.884Z"/><path fill="#d6795c" d="M24 24L30.212 0.818A24 24 0 0 1 31.655 1.254Z"/><path fill="#d9775a" d="M24 24L31.416 1.175A24 24 0 0 1 32.835 1.685Z"/><path fill="#d7785b" d="M24 24L32.601 1.594A24 24 0 0 1 33.991 2.178Z"/><path fill="#d5795d" d="M24 24L33.762 2.075A24 24 0 0 1 35.119 2.731Z"/><path fill="#d37b5f" d="M24 24L34.896 2.616A24 24 0 0 1 36.217 3.342Z"/><path fill="#d17c61" d="M24 24L36.000 3.215A24 24 0 0 1 37.281 4.010Z"/><path fill="#ce7d62" d="M24 24L37.071 3.872A24 24 0 0 1 38.309 4.732Z"/><path fill="#cc7f64" d="M24 24L38.107 4.584A24 24 0 0 1 39.298 5.508Z"/><path fill="#ca8066" d="M24 24L39.104 5.348A24 24 0 0 1 40.245 6.334Z"/><path fill="#c88168" d="M24 24L40.059 6.165A24 24 0 0 1 41.147 7.208Z"/><path fill="#c68369" d="M24 24L40.971 7.029A24 24 0 0 1 42.003 8.129Z"/><path fill="#c4846b" d="M24 24L41.835 7.941A24 24 0 0 1 42.809 9.092Z"/><path fill="#c1856d" d="M24 24L42.652 8.896A24 24 0 0 1 43.563 10.097Z"/><path fill="#bf876f" d="M24 24L43.416 9.893A24 24 0 0 1 44.264 11.140Z"/><path fill="#bd8870" d="M24 24L44.128 10.929A24 24 0 0 1 44.909 12.218Z"/><path fill="#bb8972" d="M24 24L44.785 12.000A24 24 0 0 1 45.497 13.329Z"/><path fill="#b98b74" d="M24 24L45.384 13.104A24 24 0 0 1 46.026 14.468Z"/><path fill="#b68c75" d="M24 24L45.925 14.238A24 24 0 0 1 46.495 15.634Z"/><path fill="#b48d77" d="M24 24L46.406 15.399A24 24 0 0 1 46.902 16.823Z"/><path fill="#b28f79" d="M24 24L46.825 16.584A24 24 0 0 1 47.246 18.031Z"/><path fill="#b0907b" d="M24 24L47.182 17.788A24 24 0 0 1 47.527 19.256Z"/><path fill="#ae917c" d="M24 24L47.476 19.010A24 24 0 0 1 47.743 20.494Z"/><path fill="#ac937e" d="M24 24L47.705 20.246A24 24 0 0 1 47.893 21.741Z"/><path fill="#a99480" d="M24 24L47.869 21.491A24 24 0 0 1 47.979 22.995Z"/><path fill="#a79582" d="M24 24L47.967 22.744A24 24 0 0 1 47.999 24.251Z"/><path fill="#a59783" d="M24 24L48.000 24.000A24 24 0 0 1 47.953 25.507Z"/><path fill="#a39885" d="M24 24L47.967 25.256A24 24 0 0 1 47.841 26.758Z"/><path fill="#a19987" d="M24 24L47.869 26.509A24 24 0 0 1 47.664 28.002Z"/><path fill="#9e9b89" d="M24 24L47.705 27.754A24 24 0 0 1 47.422 29.235Z"/><path fill="#9c9c8a" d="M24 24L47.476 28.990A24 24 0 0 1 47.116 30.454Z"/><path fill="#9a9d8c" d="M24 24L47.182 30.212A24 24 0 0 1 46.746 31.655Z"/><path fill="#989f8e" d="M24 24L46.825 31.416A24 24 0 0 1 46.315 32.835Z"/><path fill="#96a08f" d="M24 24L46.406 32.601A24 24 0 0 1 45.822 33.991Z"/><path fill="#93a191" d="M24 24L45.925 33.762A24 24 0 0 1 45.269 35.119Z"/><path fill="#91a393" d="M24 24L45.384 34.896A24 24 0 0 1 44.658 36.217Z"/><path fill="#8fa495" d="M24 24L44.785 36.000A24 24 0 0 1 43.990 37.281Z"/><path fill="#8da596" d="M24 24L44.128 37.071A24 24 0 0 1 43.268 38.309Z"/><path fill="#8ba798" d="M24 24L43.416 38.107A24 24 0 0 1 42.492 39.298Z"/><path fill="#89a89a" d="M24 24L42.652 39.104A24 24 0 0 1 41.666 40.245Z"/><path fill="#86a99c" d="M24 24L41.835 40.059A24 24 0 0 1 40.792 41.147Z"/><path fill="#84ab9d" d="M24 24L40.971 40.971A24 24 0 0 1 39.871 42.003Z"/><path fill="#82ac9f" d="M24 24L40.059 41.835A24 24 0 0 1 38.908 42.809Z"/><path fill="#80ada1" d="M24 24L39.104 42.652A24 24 0 0 1 37.903 43.563Z"/><path fill="#7eafa3" d="M24 24L38.107 43.416A24 24 0 0 1 36.860 44.264Z"/><path fill="#7bb0a4" d="M24 24L37.071 44.128A24 24 0 0 1 35.782 44.909Z"/><path fill="#79b1a6" d="M24 24L36.000 44.785A24 24 0 0 1 34.671 45.497Z"/><path fill="#77b3a8" d="M24 24L34.896 45.384A24 24 0 0 1 33.532 46.026Z"/><path fill="#75b4a9" d="M24 24L33.762 45.925A24 24 0 0 1 32.366 46.495Z"/><path fill="#73b5ab" d="M24 24L32.601 46.406A24 24 0 0 1 31.177 46.902Z"/><path fill="#71b7ad" d="M24 24L31.416 46.825A24 24 0 0 1 29.969 47.246Z"/><path fill="#6eb8af" d="M24 24L30.212 47.182A24 24 0 0 1 28.744 47.527Z"/><path fill="#6cb9b0" d="M24 24L28.990 47.476A24 24 0 0 1 27.506 47.743Z"/><path fill="#6abbb2" d="M24 24L27.754 47.705A24 24 0 0 1 26.259 47.893Z"/><path fill="#68bcb4" d="M24 24L26.509 47.869A24 24 0 0 1 25.005 47.979Z"/><path fill="#66bdb6" d="M24 24L25.256 47.967A24 24 0 0 1 23.749 47.999Z"/><path fill="#63bfb7" d="M24 24L24.000 48.000A24 24 0 0 1 22.493 47.953Z"/><path fill="#61c0b9" d="M24 24L22.744 47.967A24 24 0 0 1 21.242 47.841Z"/><path fill="#5fc1bb" d="M24 24L21.491 47.869A24 24 0 0 1 19.998 47.664Z"/><path fill="#5dc3bd" d="M24 24L20.246 47.705A24 24 0 0 1 18.765 47.422Z"/><path fill="#5bc4be" d="M24 24L19.010 47.476A24 24 0 0 1 17.546 47.116Z"/><path fill="#59c5c0" d="M24 24L17.788 47.182A24 24 0 0 1 16.345 46.746Z"/><path fill="#56c7c2" d="M24 24L16.584 46.825A24 24 0 0 1 15.165 46.315Z"/><path fill="#58c6c1" d="M24 24L15.399 46.406A24 24 0 0 1 14.009 45.822Z"/><path fill="#5ac5bf" d="M24 24L14.238 45.925A24 24 0 0 1 12.881 45.269Z"/><path fill="#5cc3bd" d="M24 24L13.104 45.384A24 24 0 0 1 11.783 44.658Z"/><path fill="#5ec2bb" d="M24 24L12.000 44.785A24 24 0 0 1 10.719 43.990Z"/><path fill="#61c1ba" d="M24 24L10.929 44.128A24 24 0 0 1 9.691 43.268Z"/><path fill="#63bfb8" d="M24 24L9.893 43.416A24 24 0 0 1 8.702 42.492Z"/><path fill="#65beb6" d="M24 24L8.896 42.652A24 24 0 0 1 7.755 41.666Z"/><path fill="#67bdb4" d="M24 24L7.941 41.835A24 24 0 0 1 6.853 40.792Z"/><path fill="#69bbb3" d="M24 24L7.029 40.971A24 24 0 0 1 5.997 39.871Z"/><path fill="#6bbab1" d="M24 24L6.165 40.059A24 24 0 0 1 5.191 38.908Z"/><path fill="#6eb9af" d="M24 24L5.348 39.104A24 24 0 0 1 4.437 37.903Z"/><path fill="#70b7ad" d="M24 24L4.584 38.107A24 24 0 0 1 3.736 36.860Z"/><path fill="#72b6ac" d="M24 24L3.872 37.071A24 24 0 0 1 3.091 35.782Z"/><path fill="#74b5aa" d="M24 24L3.215 36.000A24 24 0 0 1 2.503 34.671Z"/><path fill="#76b3a8" d="M24 24L2.616 34.896A24 24 0 0 1 1.974 33.532Z"/><path fill="#79b2a7" d="M24 24L2.075 33.762A24 24 0 0 1 1.505 32.366Z"/><path fill="#7bb1a5" d="M24 24L1.594 32.601A24 24 0 0 1 1.098 31.177Z"/><path fill="#7dafa3" d="M24 24L1.175 31.416A24 24 0 0 1 0.754 29.969Z"/><path fill="#7faea1" d="M24 24L0.818 30.212A24 24 0 0 1 0.473 28.744Z"/><path fill="#81ada0" d="M24 24L0.524 28.990A24 24 0 0 1 0.257 27.506Z"/><path fill="#83ab9e" d="M24 24L0.295 27.754A24 24 0 0 1 0.107 26.259Z"/><path fill="#86aa9c" d="M24 24L0.131 26.509A24 24 0 0 1 0.021 25.005Z"/><path fill="#88a99a" d="M24 24L0.033 25.256A24 24 0 0 1 0.001 23.749Z"/><path fill="#8aa799" d="M24 24L0.000 24.000A24 24 0 0 1 0.047 22.493Z"/><path fill="#8ca697" d="M24 24L0.033 22.744A24 24 0 0 1 0.159 21.242Z"/><path fill="#8ea595" d="M24 24L0.131 21.491A24 24 0 0 1 0.336 19.998Z"/><path fill="#91a393" d="M24 24L0.295 20.246A24 24 0 0 1 0.578 18.765Z"/><path fill="#93a292" d="M24 24L0.524 19.010A24 24 0 0 1 0.884 17.546Z"/><path fill="#95a190" d="M24 24L0.818 17.788A24 24 0 0 1 1.254 16.345Z"/><path fill="#979f8e" d="M24 24L1.175 16.584A24 24 0 0 1 1.685 15.165Z"/><path fill="#999e8d" d="M24 24L1.594 15.399A24 24 0 0 1 2.178 14.009Z"/><path fill="#9c9d8b" d="M24 24L2.075 14.238A24 24 0 0 1 2.731 12.881Z"/><path fill="#9e9b89" d="M24 24L2.616 13.104A24 24 0 0 1 3.342 11.783Z"/><path fill="#a09a87" d="M24 24L3.215 12.000A24 24 0 0 1 4.010 10.719Z"/><path fill="#a29986" d="M24 24L3.872 10.929A24 24 0 0 1 4.732 9.691Z"/><path fill="#a49784" d="M24 24L4.584 9.893A24 24 0 0 1 5.508 8.702Z"/><path fill="#a69682" d="M24 24L5.348 8.896A24 24 0 0 1 6.334 7.755Z"/><path fill="#a99580" d="M24 24L6.165 7.941A24 24 0 0 1 7.208 6.853Z"/><path fill="#ab937f" d="M24 24L7.029 7.029A24 24 0 0 1 8.129 5.997Z"/><path fill="#ad927d" d="M24 24L7.941 6.165A24 24 0 0 1 9.092 5.191Z"/><path fill="#af917b" d="M24 24L8.896 5.348A24 24 0 0 1 10.097 4.437Z"/><path fill="#b18f79" d="M24 24L9.893 4.584A24 24 0 0 1 11.140 3.736Z"/><path fill="#b48e78" d="M24 24L10.929 3.872A24 24 0 0 1 12.218 3.091Z"/><path fill="#b68d76" d="M24 24L12.000 3.215A24 24 0 0 1 13.329 2.503Z"/><path fill="#b88b74" d="M24 24L13.104 2.616A24 24 0 0 1 14.468 1.974Z"/><path fill="#ba8a73" d="M24 24L14.238 2.075A24 24 0 0 1 15.634 1.505Z"/><path fill="#bc8971" d="M24 24L15.399 1.594A24 24 0 0 1 16.823 1.098Z"/><path fill="#be876f" d="M24 24L16.584 1.175A24 24 0 0 1 18.031 0.754Z"/><path fill="#c1866d" d="M24 24L17.788 0.818A24 24 0 0 1 19.256 0.473Z"/><path fill="#c3856c" d="M24 24L19.010 0.524A24 24 0 0 1 20.494 0.257Z"/><path fill="#c5836a" d="M24 24L20.246 0.295A24 24 0 0 1 21.741 0.107Z"/><path fill="#c78268" d="M24 24L21.491 0.131A24 24 0 0 1 22.995 0.021Z"/><path fill="#c98166" d="M24 24L22.744 0.033A24 24 0 0 1 24.251 0.001Z"/></g></svg>
